<?xml version="1.0" encoding="utf-8"?>
<!-- Generator: Adobe Illustrator 26.3.1, SVG Export Plug-In . SVG Version: 6.00 Build 0)  -->
<svg version="1.1" id="Layer_1" xmlns="http://www.w3.org/2000/svg" xmlns:xlink="http://www.w3.org/1999/xlink" x="0px" y="0px"
	 viewBox="0 0 713.7 454.9" style="enable-background:new 0 0 713.7 454.9;" xml:space="preserve">
<style type="text/css">
	.st0{fill:#9E6661;}
	.st1{fill:#2F2E41;}
	.st2{fill:#E0D8CA;}
	.st3{fill:#2F2E41;stroke:#2F2E41;stroke-width:0.5;stroke-linecap:round;stroke-linejoin:round;stroke-miterlimit:10;}
	.st4{fill:#71357E;}
	.st5{fill:#FFFFFF;}
</style>
<polygon class="st0" points="104,446 114.8,446 119.9,404.4 104,404.4 "/>
<path class="st1" d="M140.9,445.7L140.9,445.7c0.3,0.6,0.5,2.4,0.5,3l0,0c0,2-1.6,3.7-3.7,3.7h-33.4c-1.4,0-2.5-1.1-2.5-2.5v-1.4
	c0,0-1.7-4.2,1.7-9.3c0,0,4.2,4,10.5-2.3l1.9-3.4l13.5,9.9l7.5,0.9C138.6,444.5,140.1,444.3,140.9,445.7L140.9,445.7z"/>
<polygon class="st0" points="143,435.5 153.6,437.3 165.6,397.1 149.9,394.5 "/>
<path class="st1" d="M179.4,441.3L179.4,441.3c0.2,0.6,0.1,2.4,0,3.1l0,0c-0.3,2-2.2,3.3-4.2,3l-32.9-5.5c-1.4-0.2-2.3-1.5-2-2.9
	l0.2-1.4c0,0-0.9-4.4,3.3-8.9c0,0,3.5,4.7,10.8-0.5l2.4-3l11.7,12l7.2,2.1C177.4,439.8,178.9,439.8,179.4,441.3L179.4,441.3z"/>
<path class="st1" d="M165.1,222.2c0,0,14.5,17,14.5,32.5s0.4,64.4,0.4,64.4s-8.5,76.2-10.6,82.6c-2.1,6.4-3.2,17-3.2,17l-20.5-4.9
	c0,0-2.8-71.7,5.7-88.6L130.8,267l-7.1,163.9H100c0,0-12.2-86.2-5.9-108.8c0,0-14.1-86.2-10.6-91.1C87,226,165.1,222.2,165.1,222.2
	L165.1,222.2z"/>
<path class="st2" d="M462.3,402.6c66.6-23.6,140.8-20.9,219.7-2.3c9.9,2.3,19.4-5.1,19.4-15.3V86.8c0-7.2-4.9-13.6-12-15.3
	c-83.2-20.4-161-24.1-229.5,0.1c-5,1.8-10.6,0.8-14.8-2.4c-57.7-43.9-116.8-66-177.7-59.4c-8,0.9-14,7.6-14,15.6v301.4
	c0,8.1,6.1,14.8,14.1,15.7c65.5,6.8,125.7,27.5,181.6,59.1C453.3,403.8,458,404.1,462.3,402.6L462.3,402.6z"/>
<path class="st1" d="M460.1,385.9c-4.5,0-9-1.2-12.9-3.7C400.2,353,349,336,295,331.5c-12.7-1-22.6-11.8-22.6-24.6V49.5
	c0-13.2,10.2-24,23.3-24.6C335.1,23,382.8,40.6,446,80c5.3,3.3,11.8,4.3,17.8,2.7c60-16.1,125.1-16.6,198.9-1.4
	c11.5,2.4,19.8,12.5,19.8,24.2v251.3c0,7.6-3.4,14.6-9.4,19.3c-6,4.7-13.7,6.4-21.1,4.7c-69.8-16.6-129.8-15.4-183.4,3.7l0,0
	C465.9,385.4,463,385.9,460.1,385.9L460.1,385.9z M301.4,26.7c-1.9,0-3.7,0-5.5,0.1c-12,0.6-21.4,10.5-21.4,22.6v257.4
	c0,11.7,9.1,21.6,20.7,22.6c54.3,4.5,105.8,21.6,153.1,51c5.9,3.7,13.1,4.4,19.7,2l0.3,0.9l-0.3-0.9c53.9-19.2,114.3-20.5,184.5-3.7
	c6.9,1.6,13.9,0.1,19.4-4.3c5.5-4.3,8.6-10.8,8.6-17.8V105.5c0-10.7-7.6-20.1-18.2-22.2c-73.5-15.1-138.3-14.6-198,1.4
	c-6.5,1.7-13.6,0.7-19.4-3C385,44.3,339.2,26.7,301.4,26.7L301.4,26.7z"/>
<rect x="455" y="84.2" transform="matrix(1 -9.239119e-03 9.239119e-03 1 -2.1503 4.223)" class="st1" width="2" height="301.2"/>
<polygon class="st3" points="293.6,60.7 294.2,58.8 427.2,105.1 426.6,107 "/>
<polygon class="st3" points="293.6,97.7 294.2,95.9 427.2,142.2 426.6,144.1 "/>
<polygon class="st3" points="293.6,134.8 294.2,132.9 427.2,179.3 426.6,181.2 "/>
<polygon class="st3" points="293.6,171.9 294.2,170 427.2,216.3 426.6,218.2 "/>
<polygon class="st3" points="293.6,209 294.2,207.1 427.2,253.4 426.6,255.3 "/>
<polygon class="st3" points="293.6,246 294.2,244.1 427.2,290.5 426.6,292.4 "/>
<rect x="489.3" y="112.7" class="st3" width="167.8" height="2"/>
<rect x="489.3" y="147.7" class="st3" width="167.8" height="2"/>
<rect x="489.3" y="182.7" class="st3" width="167.8" height="2"/>
<rect x="489.3" y="217.7" class="st3" width="167.8" height="2"/>
<rect x="489.3" y="252.7" class="st3" width="167.8" height="2"/>
<rect x="489.3" y="287.8" class="st3" width="167.8" height="2"/>
<g>
	<circle class="st4" cx="659.7" cy="354.4" r="31.6"/>
	<path class="st5" d="M674.5,353.2l-19.6-11.3c-0.9-0.5-2.1,0.1-2.1,1.2v10h-5.9c-0.8,0-1.4,0.6-1.4,1.4c0,0.8,0.6,1.4,1.4,1.4h5.9
		v10c0,1.1,1.1,1.7,2.1,1.2l19.6-11.3C675.4,355.1,675.4,353.7,674.5,353.2z"/>
</g>
<rect x="107.1" y="52" class="st0" width="21.2" height="22.7"/>
<circle class="st0" cx="121.1" cy="31.8" r="24"/>
<path class="st1" d="M140.3,12.4C139.1,9,135.7,6.9,132,7c-0.2,0-0.3,0-0.5,0c-1.9-0.1-3.6-0.7-5.4-1.1c-3.4-0.7-6.9-0.5-10.2,0.7
	c-1,0.3-2,0.8-3.1,0.8c-1.1,0-2.2-0.6-2.5-1.6c-0.1,0.9-0.1,1.9-0.2,2.8c-0.3-0.8-0.7-1.5-1-2.3l-0.7,3l-2.2-2.5
	c0.2,1.1-0.5,2.2-1.3,3c-0.9,0.7-2,1.1-3,1.6c-4.5,1.9-8.8,5.3-10.1,10.1c-0.8,3-0.4,6.2,0,9.2c0.4,2.7,0.8,5.5,2.3,7.8
	c0.9,1.5,2.3,2.7,2.9,4.4c0.5,1.5,0.3,3.3,1.1,4.8c0.8,1.5,2.4,2.3,3.9,2.8c1.6,0.6,3.2,0.9,4.5,1.9c1.3,1,2.9,3.7,5.8,3.6l0.9-1.8
	c1-0.8-2.6-0.2-2.6-1.4s4.3-2,3.7-3.1c-0.9-1.7-2.2-3.1-3.3-4.7c-1.2-1.9-2.2-4-1.8-6.3c0.2-0.9,0.6-1.7,1.2-2.4
	c1.8-1.8,3.8-1,5.8-0.8c1.4,0.2,3,0,3.7-1.2c0.8-1.4-0.1-3.1,0-4.7c0.1-1.7,1.4-3.1,2.8-4c1.4-1,3-1.7,4.2-2.8
	c1.3-1.1,2.1-2.9,1.6-4.5c5.9-2.5,6.8-2.7,13.1-1.2C141.2,15.5,140.8,13.9,140.3,12.4L140.3,12.4z"/>
<path class="st0" d="M237.7,176.2c-3.3-2.3-6.9-3.5-9.9-3.6c-26.7-19.2-49.4-28.7-49.4-28.7l-27-36.8l-6,17.6l20.7,32.5
	c11.4,7.7,55.8,25.9,55.8,25.9l0-0.1c1.3,2.4,3.5,4.9,6.4,6.8c6.3,4.3,13.6,4.8,16.2,1S244,180.6,237.7,176.2z"/>
<path class="st4" d="M137.3,75.7l8.8-2.5c0,0,5.1,0,8,5.1c2.9,5.1,23.4,50.1,22.5,51.8s-2.3,2.1-0.6,3.1s3.3,0.5,2.2,1.9
	s0.5,4.7,0.5,4.7L156,156.5L137.3,75.7L137.3,75.7z"/>
<path class="st4" d="M127.9,67.2c0,0,24.9,4.6,27,13.7c2.1,9.2,2.8,116.5,2.8,116.5l10.6,15.5l-0.7,13.4l-84.8,4.2v-12.9L75,202.4
	c0,0,8.5-122.9,10.6-123.6s21.4-9.6,21.4-9.6l4.6,1.7c3.9,1.5,8.2,1.1,11.8-1L127.9,67.2z"/>
<path class="st0" d="M94.7,126.3l-17.9,5.2l-1.5,30.4c0.3,13.7-2.3,65.8-2.3,65.8l0.1,0c-1.2,2.5-2,5.7-1.9,9.1
	c0.1,7.7,3.9,13.9,8.5,13.8c4.6-0.1,8.2-6.3,8.1-14c-0.1-3.9-1.1-7.5-2.7-10c5.6-33,8.2-62.3,8.2-62.3L94.7,126.3z"/>
<path class="st4" d="M95.3,77.6l-7.6,0.3c0,0-6.4,1.6-7.7,7.3c-1.2,5.7-9.7,64.7-8.2,66c1.5,1.4,2.9,1.3,1.5,2.8s-3,1.5-1.5,2.5
	c1.6,1,1,4.6,1,4.6l25.4-1.8L95.3,77.6L95.3,77.6z"/>
</svg>
